<svg width="197" height="16" viewBox="0 0 197 16" fill="none" xmlns="http://www.w3.org/2000/svg">
<path d="M8.39844 10.8125V12H0.953125V10.9609L4.67969 6.8125C5.13802 6.30208 5.49219 5.86979 5.74219 5.51562C5.9974 5.15625 6.17448 4.83594 6.27344 4.55469C6.3776 4.26823 6.42969 3.97656 6.42969 3.67969C6.42969 3.30469 6.35156 2.96615 6.19531 2.66406C6.04427 2.35677 5.82031 2.11198 5.52344 1.92969C5.22656 1.7474 4.86719 1.65625 4.44531 1.65625C3.9401 1.65625 3.51823 1.75521 3.17969 1.95312C2.84635 2.14583 2.59635 2.41667 2.42969 2.76562C2.26302 3.11458 2.17969 3.51562 2.17969 3.96875H0.734375C0.734375 3.32812 0.875 2.74219 1.15625 2.21094C1.4375 1.67969 1.85417 1.25781 2.40625 0.945312C2.95833 0.627604 3.63802 0.46875 4.44531 0.46875C5.16406 0.46875 5.77865 0.596354 6.28906 0.851562C6.79948 1.10156 7.1901 1.45573 7.46094 1.91406C7.73698 2.36719 7.875 2.89844 7.875 3.50781C7.875 3.84115 7.81771 4.17969 7.70312 4.52344C7.59375 4.86198 7.4401 5.20052 7.24219 5.53906C7.04948 5.8776 6.82292 6.21094 6.5625 6.53906C6.30729 6.86719 6.03385 7.1901 5.74219 7.50781L2.69531 10.8125H8.39844ZM17.3984 10.8125V12H9.95312V10.9609L13.6797 6.8125C14.138 6.30208 14.4922 5.86979 14.7422 5.51562C14.9974 5.15625 15.1745 4.83594 15.2734 4.55469C15.3776 4.26823 15.4297 3.97656 15.4297 3.67969C15.4297 3.30469 15.3516 2.96615 15.1953 2.66406C15.0443 2.35677 14.8203 2.11198 14.5234 1.92969C14.2266 1.7474 13.8672 1.65625 13.4453 1.65625C12.9401 1.65625 12.5182 1.75521 12.1797 1.95312C11.8464 2.14583 11.5964 2.41667 11.4297 2.76562C11.263 3.11458 11.1797 3.51562 11.1797 3.96875H9.73438C9.73438 3.32812 9.875 2.74219 10.1562 2.21094C10.4375 1.67969 10.8542 1.25781 11.4062 0.945312C11.9583 0.627604 12.638 0.46875 13.4453 0.46875C14.1641 0.46875 14.7786 0.596354 15.2891 0.851562C15.7995 1.10156 16.1901 1.45573 16.4609 1.91406C16.737 2.36719 16.875 2.89844 16.875 3.50781C16.875 3.84115 16.8177 4.17969 16.7031 4.52344C16.5938 4.86198 16.4401 5.20052 16.2422 5.53906C16.0495 5.8776 15.8229 6.21094 15.5625 6.53906C15.3073 6.86719 15.0339 7.1901 14.7422 7.50781L11.6953 10.8125H17.3984ZM24.4922 0.609375H24.6172V1.83594H24.4922C23.7266 1.83594 23.0859 1.96094 22.5703 2.21094C22.0547 2.45573 21.6458 2.78646 21.3438 3.20312C21.0417 3.61458 20.8229 4.07812 20.6875 4.59375C20.5573 5.10938 20.4922 5.63281 20.4922 6.16406V7.83594C20.4922 8.34115 20.5521 8.78906 20.6719 9.17969C20.7917 9.5651 20.9557 9.89062 21.1641 10.1562C21.3724 10.4219 21.6068 10.6224 21.8672 10.7578C22.1328 10.8932 22.4089 10.9609 22.6953 10.9609C23.0286 10.9609 23.3255 10.8984 23.5859 10.7734C23.8464 10.6432 24.0651 10.4635 24.2422 10.2344C24.4245 10 24.5625 9.72396 24.6562 9.40625C24.75 9.08854 24.7969 8.73958 24.7969 8.35938C24.7969 8.02083 24.7552 7.69531 24.6719 7.38281C24.5885 7.0651 24.4609 6.78385 24.2891 6.53906C24.1172 6.28906 23.901 6.09375 23.6406 5.95312C23.3854 5.80729 23.0807 5.73438 22.7266 5.73438C22.3255 5.73438 21.9505 5.83333 21.6016 6.03125C21.2578 6.22396 20.974 6.47917 20.75 6.79688C20.5312 7.10938 20.4062 7.45052 20.375 7.82031L19.6094 7.8125C19.6823 7.22917 19.8177 6.73177 20.0156 6.32031C20.2188 5.90365 20.4688 5.5651 20.7656 5.30469C21.0677 5.03906 21.4036 4.84635 21.7734 4.72656C22.1484 4.60156 22.5443 4.53906 22.9609 4.53906C23.5286 4.53906 24.0182 4.64583 24.4297 4.85938C24.8411 5.07292 25.1797 5.35938 25.4453 5.71875C25.7109 6.07292 25.9062 6.47396 26.0312 6.92188C26.1615 7.36458 26.2266 7.82031 26.2266 8.28906C26.2266 8.82552 26.151 9.32812 26 9.79688C25.849 10.2656 25.6224 10.6771 25.3203 11.0312C25.0234 11.3854 24.6562 11.6615 24.2188 11.8594C23.7812 12.0573 23.2734 12.1562 22.6953 12.1562C22.0807 12.1562 21.5443 12.0312 21.0859 11.7812C20.6276 11.526 20.2474 11.1875 19.9453 10.7656C19.6432 10.3438 19.4167 9.875 19.2656 9.35938C19.1146 8.84375 19.0391 8.32031 19.0391 7.78906V7.10938C19.0391 6.30729 19.1198 5.52083 19.2812 4.75C19.4427 3.97917 19.7214 3.28125 20.1172 2.65625C20.5182 2.03125 21.0729 1.53385 21.7812 1.16406C22.4896 0.794271 23.3932 0.609375 24.4922 0.609375ZM30.0547 5.60156H31.0859C31.5911 5.60156 32.0078 5.51823 32.3359 5.35156C32.6693 5.17969 32.9167 4.94792 33.0781 4.65625C33.2448 4.35938 33.3281 4.02604 33.3281 3.65625C33.3281 3.21875 33.2552 2.85156 33.1094 2.55469C32.9635 2.25781 32.7448 2.03385 32.4531 1.88281C32.1615 1.73177 31.7917 1.65625 31.3438 1.65625C30.9375 1.65625 30.5781 1.73698 30.2656 1.89844C29.9583 2.05469 29.7161 2.27865 29.5391 2.57031C29.3672 2.86198 29.2812 3.20573 29.2812 3.60156H27.8359C27.8359 3.02344 27.9818 2.4974 28.2734 2.02344C28.5651 1.54948 28.974 1.17188 29.5 0.890625C30.0312 0.609375 30.6458 0.46875 31.3438 0.46875C32.0312 0.46875 32.6328 0.591146 33.1484 0.835938C33.6641 1.07552 34.0651 1.4349 34.3516 1.91406C34.638 2.38802 34.7812 2.97917 34.7812 3.6875C34.7812 3.97396 34.7135 4.28125 34.5781 4.60938C34.4479 4.93229 34.2422 5.23438 33.9609 5.51562C33.6849 5.79688 33.3255 6.02865 32.8828 6.21094C32.4401 6.38802 31.9089 6.47656 31.2891 6.47656H30.0547V5.60156ZM30.0547 6.78906V5.92188H31.2891C32.013 5.92188 32.612 6.00781 33.0859 6.17969C33.5599 6.35156 33.9323 6.58073 34.2031 6.86719C34.4792 7.15365 34.6719 7.46875 34.7812 7.8125C34.8958 8.15104 34.9531 8.48958 34.9531 8.82812C34.9531 9.35938 34.862 9.83073 34.6797 10.2422C34.5026 10.6536 34.25 11.0026 33.9219 11.2891C33.599 11.5755 33.2188 11.7917 32.7812 11.9375C32.3438 12.0833 31.8672 12.1562 31.3516 12.1562C30.8568 12.1562 30.3906 12.0859 29.9531 11.9453C29.5208 11.8047 29.138 11.6016 28.8047 11.3359C28.4714 11.0651 28.2109 10.7344 28.0234 10.3438C27.8359 9.94792 27.7422 9.4974 27.7422 8.99219H29.1875C29.1875 9.38802 29.2734 9.73438 29.4453 10.0312C29.6224 10.3281 29.8724 10.5599 30.1953 10.7266C30.5234 10.888 30.9089 10.9688 31.3516 10.9688C31.7943 10.9688 32.1745 10.8932 32.4922 10.7422C32.8151 10.5859 33.0625 10.3516 33.2344 10.0391C33.4115 9.72656 33.5 9.33333 33.5 8.85938C33.5 8.38542 33.401 7.9974 33.2031 7.69531C33.0052 7.38802 32.724 7.16146 32.3594 7.01562C32 6.86458 31.5755 6.78906 31.0859 6.78906H30.0547ZM47.3516 9.125C47.3516 8.85938 47.3099 8.625 47.2266 8.42188C47.1484 8.21354 47.0078 8.02604 46.8047 7.85938C46.6068 7.69271 46.3307 7.53385 45.9766 7.38281C45.6276 7.23177 45.1849 7.07812 44.6484 6.92188C44.0859 6.75521 43.5781 6.57031 43.125 6.36719C42.6719 6.15885 42.2839 5.92188 41.9609 5.65625C41.638 5.39062 41.3906 5.08594 41.2188 4.74219C41.0469 4.39844 40.9609 4.00521 40.9609 3.5625C40.9609 3.11979 41.0521 2.71094 41.2344 2.33594C41.4167 1.96094 41.6771 1.63542 42.0156 1.35938C42.3594 1.07812 42.7682 0.859375 43.2422 0.703125C43.7161 0.546875 44.2448 0.46875 44.8281 0.46875C45.6823 0.46875 46.4062 0.632812 47 0.960938C47.599 1.28385 48.0547 1.70833 48.3672 2.23438C48.6797 2.75521 48.8359 3.3125 48.8359 3.90625H47.3359C47.3359 3.47917 47.2448 3.10156 47.0625 2.77344C46.8802 2.4401 46.6042 2.17969 46.2344 1.99219C45.8646 1.79948 45.3958 1.70312 44.8281 1.70312C44.2917 1.70312 43.849 1.78385 43.5 1.94531C43.151 2.10677 42.8906 2.32552 42.7188 2.60156C42.5521 2.8776 42.4688 3.19271 42.4688 3.54688C42.4688 3.78646 42.5182 4.00521 42.6172 4.20312C42.7214 4.39583 42.8802 4.57552 43.0938 4.74219C43.3125 4.90885 43.5885 5.0625 43.9219 5.20312C44.2604 5.34375 44.6641 5.47917 45.1328 5.60938C45.7786 5.79167 46.3359 5.99479 46.8047 6.21875C47.2734 6.44271 47.6589 6.69531 47.9609 6.97656C48.2682 7.2526 48.4948 7.56771 48.6406 7.92188C48.7917 8.27083 48.8672 8.66667 48.8672 9.10938C48.8672 9.57292 48.7734 9.99219 48.5859 10.3672C48.3984 10.7422 48.1302 11.0625 47.7812 11.3281C47.4323 11.5938 47.013 11.7995 46.5234 11.9453C46.0391 12.0859 45.4974 12.1562 44.8984 12.1562C44.3724 12.1562 43.8542 12.0833 43.3438 11.9375C42.8385 11.7917 42.3776 11.5729 41.9609 11.2812C41.5495 10.9896 41.2188 10.6302 40.9688 10.2031C40.724 9.77083 40.6016 9.27083 40.6016 8.70312H42.1016C42.1016 9.09375 42.1771 9.42969 42.3281 9.71094C42.4792 9.98698 42.6849 10.2161 42.9453 10.3984C43.2109 10.5807 43.5104 10.7161 43.8438 10.8047C44.1823 10.888 44.5339 10.9297 44.8984 10.9297C45.4245 10.9297 45.8698 10.8568 46.2344 10.7109C46.599 10.5651 46.875 10.3568 47.0625 10.0859C47.2552 9.8151 47.3516 9.49479 47.3516 9.125ZM50.1875 7.86719V7.6875C50.1875 7.07812 50.276 6.51302 50.4531 5.99219C50.6302 5.46615 50.8854 5.01042 51.2188 4.625C51.5521 4.23438 51.9557 3.93229 52.4297 3.71875C52.9036 3.5 53.4349 3.39062 54.0234 3.39062C54.6172 3.39062 55.151 3.5 55.625 3.71875C56.1042 3.93229 56.5104 4.23438 56.8438 4.625C57.1823 5.01042 57.4401 5.46615 57.6172 5.99219C57.7943 6.51302 57.8828 7.07812 57.8828 7.6875V7.86719C57.8828 8.47656 57.7943 9.04167 57.6172 9.5625C57.4401 10.0833 57.1823 10.5391 56.8438 10.9297C56.5104 11.3151 56.1068 11.6172 55.6328 11.8359C55.1641 12.0495 54.6328 12.1562 54.0391 12.1562C53.4453 12.1562 52.9115 12.0495 52.4375 11.8359C51.9635 11.6172 51.5573 11.3151 51.2188 10.9297C50.8854 10.5391 50.6302 10.0833 50.4531 9.5625C50.276 9.04167 50.1875 8.47656 50.1875 7.86719ZM51.6328 7.6875V7.86719C51.6328 8.28906 51.6823 8.6875 51.7812 9.0625C51.8802 9.43229 52.0286 9.76042 52.2266 10.0469C52.4297 10.3333 52.6823 10.5599 52.9844 10.7266C53.2865 10.888 53.638 10.9688 54.0391 10.9688C54.4349 10.9688 54.7812 10.888 55.0781 10.7266C55.3802 10.5599 55.6302 10.3333 55.8281 10.0469C56.026 9.76042 56.1745 9.43229 56.2734 9.0625C56.3776 8.6875 56.4297 8.28906 56.4297 7.86719V7.6875C56.4297 7.27083 56.3776 6.8776 56.2734 6.50781C56.1745 6.13281 56.0234 5.80208 55.8203 5.51562C55.6224 5.22396 55.3724 4.99479 55.0703 4.82812C54.7734 4.66146 54.4245 4.57812 54.0234 4.57812C53.6276 4.57812 53.2786 4.66146 52.9766 4.82812C52.6797 4.99479 52.4297 5.22396 52.2266 5.51562C52.0286 5.80208 51.8802 6.13281 51.7812 6.50781C51.6823 6.8776 51.6328 7.27083 51.6328 7.6875ZM64.8672 10.0469V3.54688H66.3203V12H64.9375L64.8672 10.0469ZM65.1406 8.26562L65.7422 8.25C65.7422 8.8125 65.6823 9.33333 65.5625 9.8125C65.4479 10.2865 65.2604 10.6979 65 11.0469C64.7396 11.3958 64.3984 11.6693 63.9766 11.8672C63.5547 12.0599 63.0417 12.1562 62.4375 12.1562C62.026 12.1562 61.6484 12.0964 61.3047 11.9766C60.9661 11.8568 60.6745 11.6719 60.4297 11.4219C60.1849 11.1719 59.9948 10.8464 59.8594 10.4453C59.7292 10.0443 59.6641 9.5625 59.6641 9V3.54688H61.1094V9.01562C61.1094 9.39583 61.151 9.71094 61.2344 9.96094C61.3229 10.2057 61.4401 10.401 61.5859 10.5469C61.737 10.6875 61.9036 10.7865 62.0859 10.8438C62.2734 10.901 62.4661 10.9297 62.6641 10.9297C63.2786 10.9297 63.7656 10.8125 64.125 10.5781C64.4844 10.3385 64.7422 10.0182 64.8984 9.61719C65.0599 9.21094 65.1406 8.76042 65.1406 8.26562ZM72.0625 3.54688V4.65625H67.4922V3.54688H72.0625ZM69.0391 1.49219H70.4844V9.90625C70.4844 10.1927 70.5286 10.4089 70.6172 10.5547C70.7057 10.7005 70.8203 10.7969 70.9609 10.8438C71.1016 10.8906 71.2526 10.9141 71.4141 10.9141C71.5339 10.9141 71.6589 10.9036 71.7891 10.8828C71.9245 10.8568 72.026 10.8359 72.0938 10.8203L72.1016 12C71.987 12.0365 71.8359 12.0703 71.6484 12.1016C71.4661 12.138 71.2448 12.1562 70.9844 12.1562C70.6302 12.1562 70.3047 12.0859 70.0078 11.9453C69.7109 11.8047 69.474 11.5703 69.2969 11.2422C69.125 10.9089 69.0391 10.4609 69.0391 9.89844V1.49219ZM75.2031 0V12H73.7578V0H75.2031ZM74.8594 7.45312L74.2578 7.42969C74.263 6.85156 74.349 6.31771 74.5156 5.82812C74.6823 5.33333 74.9167 4.90365 75.2188 4.53906C75.5208 4.17448 75.8802 3.89323 76.2969 3.69531C76.7188 3.49219 77.1849 3.39062 77.6953 3.39062C78.112 3.39062 78.487 3.44792 78.8203 3.5625C79.1536 3.67188 79.4375 3.84896 79.6719 4.09375C79.9115 4.33854 80.0938 4.65625 80.2188 5.04688C80.3438 5.43229 80.4062 5.90365 80.4062 6.46094V12H78.9531V6.44531C78.9531 6.0026 78.888 5.64844 78.7578 5.38281C78.6276 5.11198 78.4375 4.91667 78.1875 4.79688C77.9375 4.67188 77.6302 4.60938 77.2656 4.60938C76.9062 4.60938 76.5781 4.6849 76.2812 4.83594C75.9896 4.98698 75.737 5.19531 75.5234 5.46094C75.3151 5.72656 75.151 6.03125 75.0312 6.375C74.9167 6.71354 74.8594 7.07292 74.8594 7.45312ZM84.1406 0V12H82.6875V0H84.1406ZM89.9688 12.1562C89.3802 12.1562 88.8464 12.0573 88.3672 11.8594C87.8932 11.6562 87.4844 11.3724 87.1406 11.0078C86.8021 10.6432 86.5417 10.2109 86.3594 9.71094C86.1771 9.21094 86.0859 8.66406 86.0859 8.07031V7.74219C86.0859 7.05469 86.1875 6.44271 86.3906 5.90625C86.5938 5.36458 86.8698 4.90625 87.2188 4.53125C87.5677 4.15625 87.9635 3.8724 88.4062 3.67969C88.849 3.48698 89.3073 3.39062 89.7812 3.39062C90.3854 3.39062 90.9062 3.49479 91.3438 3.70312C91.7865 3.91146 92.1484 4.20312 92.4297 4.57812C92.7109 4.94792 92.9193 5.38542 93.0547 5.89062C93.1901 6.39062 93.2578 6.9375 93.2578 7.53125V8.17969H86.9453V7H91.8125V6.89062C91.7917 6.51562 91.7135 6.15104 91.5781 5.79688C91.4479 5.44271 91.2396 5.15104 90.9531 4.92188C90.6667 4.69271 90.276 4.57812 89.7812 4.57812C89.4531 4.57812 89.151 4.64844 88.875 4.78906C88.599 4.92448 88.362 5.1276 88.1641 5.39844C87.9661 5.66927 87.8125 6 87.7031 6.39062C87.5938 6.78125 87.5391 7.23177 87.5391 7.74219V8.07031C87.5391 8.47135 87.5938 8.84896 87.7031 9.20312C87.8177 9.55208 87.9818 9.85938 88.1953 10.125C88.4141 10.3906 88.6771 10.599 88.9844 10.75C89.2969 10.901 89.651 10.9766 90.0469 10.9766C90.5573 10.9766 90.9896 10.8724 91.3438 10.6641C91.6979 10.4557 92.0078 10.1771 92.2734 9.82812L93.1484 10.5234C92.9661 10.7995 92.7344 11.0625 92.4531 11.3125C92.1719 11.5625 91.8255 11.7656 91.4141 11.9219C91.0078 12.0781 90.526 12.1562 89.9688 12.1562ZM99.9297 10.5547V6.20312C99.9297 5.86979 99.862 5.58073 99.7266 5.33594C99.5964 5.08594 99.3984 4.89323 99.1328 4.75781C98.8672 4.6224 98.5391 4.55469 98.1484 4.55469C97.7839 4.55469 97.4635 4.61719 97.1875 4.74219C96.9167 4.86719 96.7031 5.03125 96.5469 5.23438C96.3958 5.4375 96.3203 5.65625 96.3203 5.89062H94.875C94.875 5.58854 94.9531 5.28906 95.1094 4.99219C95.2656 4.69531 95.4896 4.42708 95.7812 4.1875C96.0781 3.94271 96.4323 3.75 96.8438 3.60938C97.2604 3.46354 97.724 3.39062 98.2344 3.39062C98.849 3.39062 99.3906 3.49479 99.8594 3.70312C100.333 3.91146 100.703 4.22656 100.969 4.64844C101.24 5.0651 101.375 5.58854 101.375 6.21875V10.1562C101.375 10.4375 101.398 10.737 101.445 11.0547C101.497 11.3724 101.573 11.6458 101.672 11.875V12H100.164C100.091 11.8333 100.034 11.612 99.9922 11.3359C99.9505 11.0547 99.9297 10.7943 99.9297 10.5547ZM100.18 6.875L100.195 7.89062H98.7344C98.3229 7.89062 97.9557 7.92448 97.6328 7.99219C97.3099 8.05469 97.0391 8.15104 96.8203 8.28125C96.6016 8.41146 96.4349 8.57552 96.3203 8.77344C96.2057 8.96615 96.1484 9.19271 96.1484 9.45312C96.1484 9.71875 96.2083 9.96094 96.3281 10.1797C96.4479 10.3984 96.6276 10.5729 96.8672 10.7031C97.112 10.8281 97.4115 10.8906 97.7656 10.8906C98.2083 10.8906 98.599 10.7969 98.9375 10.6094C99.276 10.4219 99.5443 10.1927 99.7422 9.92188C99.9453 9.65104 100.055 9.38802 100.07 9.13281L100.688 9.82812C100.651 10.0469 100.552 10.2891 100.391 10.5547C100.229 10.8203 100.013 11.0755 99.7422 11.3203C99.4766 11.5599 99.1589 11.7604 98.7891 11.9219C98.4245 12.0781 98.013 12.1562 97.5547 12.1562C96.9818 12.1562 96.4792 12.0443 96.0469 11.8203C95.6198 11.5964 95.2865 11.2969 95.0469 10.9219C94.8125 10.5417 94.6953 10.1172 94.6953 9.64844C94.6953 9.19531 94.7839 8.79688 94.9609 8.45312C95.138 8.10417 95.3932 7.8151 95.7266 7.58594C96.0599 7.35156 96.4609 7.17448 96.9297 7.05469C97.3984 6.9349 97.9219 6.875 98.5 6.875H100.18ZM104.961 10.2812V11.4453C104.961 11.9193 104.841 12.4193 104.602 12.9453C104.362 13.4766 104.026 13.9193 103.594 14.2734L102.773 13.7031C102.94 13.474 103.081 13.2396 103.195 13C103.31 12.7656 103.396 12.5208 103.453 12.2656C103.516 12.0156 103.547 11.75 103.547 11.4688V10.2812H104.961ZM117.891 10.7734V12H112.203V10.7734H117.891ZM112.5 0.625V12H110.992V0.625H112.5ZM119.016 7.86719V7.6875C119.016 7.07812 119.104 6.51302 119.281 5.99219C119.458 5.46615 119.714 5.01042 120.047 4.625C120.38 4.23438 120.784 3.93229 121.258 3.71875C121.732 3.5 122.263 3.39062 122.852 3.39062C123.445 3.39062 123.979 3.5 124.453 3.71875C124.932 3.93229 125.339 4.23438 125.672 4.625C126.01 5.01042 126.268 5.46615 126.445 5.99219C126.622 6.51302 126.711 7.07812 126.711 7.6875V7.86719C126.711 8.47656 126.622 9.04167 126.445 9.5625C126.268 10.0833 126.01 10.5391 125.672 10.9297C125.339 11.3151 124.935 11.6172 124.461 11.8359C123.992 12.0495 123.461 12.1562 122.867 12.1562C122.273 12.1562 121.74 12.0495 121.266 11.8359C120.792 11.6172 120.385 11.3151 120.047 10.9297C119.714 10.5391 119.458 10.0833 119.281 9.5625C119.104 9.04167 119.016 8.47656 119.016 7.86719ZM120.461 7.6875V7.86719C120.461 8.28906 120.51 8.6875 120.609 9.0625C120.708 9.43229 120.857 9.76042 121.055 10.0469C121.258 10.3333 121.51 10.5599 121.812 10.7266C122.115 10.888 122.466 10.9688 122.867 10.9688C123.263 10.9688 123.609 10.888 123.906 10.7266C124.208 10.5599 124.458 10.3333 124.656 10.0469C124.854 9.76042 125.003 9.43229 125.102 9.0625C125.206 8.6875 125.258 8.28906 125.258 7.86719V7.6875C125.258 7.27083 125.206 6.8776 125.102 6.50781C125.003 6.13281 124.852 5.80208 124.648 5.51562C124.451 5.22396 124.201 4.99479 123.898 4.82812C123.602 4.66146 123.253 4.57812 122.852 4.57812C122.456 4.57812 122.107 4.66146 121.805 4.82812C121.508 4.99479 121.258 5.22396 121.055 5.51562C120.857 5.80208 120.708 6.13281 120.609 6.50781C120.51 6.8776 120.461 7.27083 120.461 7.6875ZM133.445 9.75781C133.445 9.54948 133.398 9.35677 133.305 9.17969C133.216 8.9974 133.031 8.83333 132.75 8.6875C132.474 8.53646 132.057 8.40625 131.5 8.29688C131.031 8.19792 130.607 8.08073 130.227 7.94531C129.852 7.8099 129.531 7.64583 129.266 7.45312C129.005 7.26042 128.805 7.03385 128.664 6.77344C128.523 6.51302 128.453 6.20833 128.453 5.85938C128.453 5.52604 128.526 5.21094 128.672 4.91406C128.823 4.61719 129.034 4.35417 129.305 4.125C129.581 3.89583 129.911 3.71615 130.297 3.58594C130.682 3.45573 131.112 3.39062 131.586 3.39062C132.263 3.39062 132.841 3.51042 133.32 3.75C133.799 3.98958 134.167 4.3099 134.422 4.71094C134.677 5.10677 134.805 5.54688 134.805 6.03125H133.359C133.359 5.79688 133.289 5.57031 133.148 5.35156C133.013 5.1276 132.812 4.94271 132.547 4.79688C132.286 4.65104 131.966 4.57812 131.586 4.57812C131.185 4.57812 130.859 4.64062 130.609 4.76562C130.365 4.88542 130.185 5.03906 130.07 5.22656C129.961 5.41406 129.906 5.61198 129.906 5.82031C129.906 5.97656 129.932 6.11719 129.984 6.24219C130.042 6.36198 130.141 6.47396 130.281 6.57812C130.422 6.67708 130.62 6.77083 130.875 6.85938C131.13 6.94792 131.456 7.03646 131.852 7.125C132.544 7.28125 133.115 7.46875 133.562 7.6875C134.01 7.90625 134.344 8.17448 134.562 8.49219C134.781 8.8099 134.891 9.19531 134.891 9.64844C134.891 10.0182 134.812 10.3568 134.656 10.6641C134.505 10.9714 134.284 11.237 133.992 11.4609C133.706 11.6797 133.362 11.8516 132.961 11.9766C132.565 12.0964 132.12 12.1562 131.625 12.1562C130.88 12.1562 130.25 12.0234 129.734 11.7578C129.219 11.4922 128.828 11.1484 128.562 10.7266C128.297 10.3047 128.164 9.85938 128.164 9.39062H129.617C129.638 9.78646 129.753 10.1016 129.961 10.3359C130.169 10.5651 130.424 10.7292 130.727 10.8281C131.029 10.9219 131.328 10.9688 131.625 10.9688C132.021 10.9688 132.352 10.9167 132.617 10.8125C132.888 10.7083 133.094 10.5651 133.234 10.3828C133.375 10.2005 133.445 9.99219 133.445 9.75781ZM145.188 1.63281L141.422 12H139.883L144.219 0.625H145.211L145.188 1.63281ZM148.344 12L144.57 1.63281L144.547 0.625H145.539L149.891 12H148.344ZM148.148 7.78906V9.02344H141.758V7.78906H148.148ZM152.641 5.35156V12H151.195V3.54688H152.562L152.641 5.35156ZM152.297 7.45312L151.695 7.42969C151.701 6.85156 151.786 6.31771 151.953 5.82812C152.12 5.33333 152.354 4.90365 152.656 4.53906C152.958 4.17448 153.318 3.89323 153.734 3.69531C154.156 3.49219 154.622 3.39062 155.133 3.39062C155.549 3.39062 155.924 3.44792 156.258 3.5625C156.591 3.67188 156.875 3.84896 157.109 4.09375C157.349 4.33854 157.531 4.65625 157.656 5.04688C157.781 5.43229 157.844 5.90365 157.844 6.46094V12H156.391V6.44531C156.391 6.0026 156.326 5.64844 156.195 5.38281C156.065 5.11198 155.875 4.91667 155.625 4.79688C155.375 4.67188 155.068 4.60938 154.703 4.60938C154.344 4.60938 154.016 4.6849 153.719 4.83594C153.427 4.98698 153.174 5.19531 152.961 5.46094C152.753 5.72656 152.589 6.03125 152.469 6.375C152.354 6.71354 152.297 7.07292 152.297 7.45312ZM165.516 3.54688H166.828V11.8203C166.828 12.5651 166.677 13.2005 166.375 13.7266C166.073 14.2526 165.651 14.651 165.109 14.9219C164.573 15.1979 163.953 15.3359 163.25 15.3359C162.958 15.3359 162.615 15.2891 162.219 15.1953C161.828 15.1068 161.443 14.9531 161.062 14.7344C160.688 14.5208 160.372 14.2318 160.117 13.8672L160.875 13.0078C161.229 13.4349 161.599 13.7318 161.984 13.8984C162.375 14.0651 162.76 14.1484 163.141 14.1484C163.599 14.1484 163.995 14.0625 164.328 13.8906C164.661 13.7188 164.919 13.4635 165.102 13.125C165.289 12.7917 165.383 12.3802 165.383 11.8906V5.40625L165.516 3.54688ZM159.695 7.86719V7.70312C159.695 7.05729 159.771 6.47135 159.922 5.94531C160.078 5.41406 160.299 4.95833 160.586 4.57812C160.878 4.19792 161.229 3.90625 161.641 3.70312C162.052 3.49479 162.516 3.39062 163.031 3.39062C163.562 3.39062 164.026 3.48438 164.422 3.67188C164.823 3.85417 165.161 4.1224 165.438 4.47656C165.719 4.82552 165.94 5.2474 166.102 5.74219C166.263 6.23698 166.375 6.79688 166.438 7.42188V8.14062C166.38 8.76042 166.268 9.31771 166.102 9.8125C165.94 10.3073 165.719 10.7292 165.438 11.0781C165.161 11.4271 164.823 11.6953 164.422 11.8828C164.021 12.0651 163.552 12.1562 163.016 12.1562C162.51 12.1562 162.052 12.0495 161.641 11.8359C161.234 11.6224 160.885 11.3229 160.594 10.9375C160.302 10.5521 160.078 10.099 159.922 9.57812C159.771 9.05208 159.695 8.48177 159.695 7.86719ZM161.141 7.70312V7.86719C161.141 8.28906 161.182 8.6849 161.266 9.05469C161.354 9.42448 161.487 9.75 161.664 10.0312C161.846 10.3125 162.078 10.5339 162.359 10.6953C162.641 10.8516 162.977 10.9297 163.367 10.9297C163.846 10.9297 164.242 10.8281 164.555 10.625C164.867 10.4219 165.115 10.1536 165.297 9.82031C165.484 9.48698 165.63 9.125 165.734 8.73438V6.85156C165.677 6.5651 165.589 6.28906 165.469 6.02344C165.354 5.7526 165.203 5.51302 165.016 5.30469C164.833 5.09115 164.607 4.92188 164.336 4.79688C164.065 4.67188 163.747 4.60938 163.383 4.60938C162.987 4.60938 162.646 4.69271 162.359 4.85938C162.078 5.02083 161.846 5.24479 161.664 5.53125C161.487 5.8125 161.354 6.14062 161.266 6.51562C161.182 6.88542 161.141 7.28125 161.141 7.70312ZM172.531 12.1562C171.943 12.1562 171.409 12.0573 170.93 11.8594C170.456 11.6562 170.047 11.3724 169.703 11.0078C169.365 10.6432 169.104 10.2109 168.922 9.71094C168.74 9.21094 168.648 8.66406 168.648 8.07031V7.74219C168.648 7.05469 168.75 6.44271 168.953 5.90625C169.156 5.36458 169.432 4.90625 169.781 4.53125C170.13 4.15625 170.526 3.8724 170.969 3.67969C171.411 3.48698 171.87 3.39062 172.344 3.39062C172.948 3.39062 173.469 3.49479 173.906 3.70312C174.349 3.91146 174.711 4.20312 174.992 4.57812C175.273 4.94792 175.482 5.38542 175.617 5.89062C175.753 6.39062 175.82 6.9375 175.82 7.53125V8.17969H169.508V7H174.375V6.89062C174.354 6.51562 174.276 6.15104 174.141 5.79688C174.01 5.44271 173.802 5.15104 173.516 4.92188C173.229 4.69271 172.839 4.57812 172.344 4.57812C172.016 4.57812 171.714 4.64844 171.438 4.78906C171.161 4.92448 170.924 5.1276 170.727 5.39844C170.529 5.66927 170.375 6 170.266 6.39062C170.156 6.78125 170.102 7.23177 170.102 7.74219V8.07031C170.102 8.47135 170.156 8.84896 170.266 9.20312C170.38 9.55208 170.544 9.85938 170.758 10.125C170.977 10.3906 171.24 10.599 171.547 10.75C171.859 10.901 172.214 10.9766 172.609 10.9766C173.12 10.9766 173.552 10.8724 173.906 10.6641C174.26 10.4557 174.57 10.1771 174.836 9.82812L175.711 10.5234C175.529 10.7995 175.297 11.0625 175.016 11.3125C174.734 11.5625 174.388 11.7656 173.977 11.9219C173.57 12.0781 173.089 12.1562 172.531 12.1562ZM179.078 0V12H177.625V0H179.078ZM184.906 12.1562C184.318 12.1562 183.784 12.0573 183.305 11.8594C182.831 11.6562 182.422 11.3724 182.078 11.0078C181.74 10.6432 181.479 10.2109 181.297 9.71094C181.115 9.21094 181.023 8.66406 181.023 8.07031V7.74219C181.023 7.05469 181.125 6.44271 181.328 5.90625C181.531 5.36458 181.807 4.90625 182.156 4.53125C182.505 4.15625 182.901 3.8724 183.344 3.67969C183.786 3.48698 184.245 3.39062 184.719 3.39062C185.323 3.39062 185.844 3.49479 186.281 3.70312C186.724 3.91146 187.086 4.20312 187.367 4.57812C187.648 4.94792 187.857 5.38542 187.992 5.89062C188.128 6.39062 188.195 6.9375 188.195 7.53125V8.17969H181.883V7H186.75V6.89062C186.729 6.51562 186.651 6.15104 186.516 5.79688C186.385 5.44271 186.177 5.15104 185.891 4.92188C185.604 4.69271 185.214 4.57812 184.719 4.57812C184.391 4.57812 184.089 4.64844 183.812 4.78906C183.536 4.92448 183.299 5.1276 183.102 5.39844C182.904 5.66927 182.75 6 182.641 6.39062C182.531 6.78125 182.477 7.23177 182.477 7.74219V8.07031C182.477 8.47135 182.531 8.84896 182.641 9.20312C182.755 9.55208 182.919 9.85938 183.133 10.125C183.352 10.3906 183.615 10.599 183.922 10.75C184.234 10.901 184.589 10.9766 184.984 10.9766C185.495 10.9766 185.927 10.8724 186.281 10.6641C186.635 10.4557 186.945 10.1771 187.211 9.82812L188.086 10.5234C187.904 10.7995 187.672 11.0625 187.391 11.3125C187.109 11.5625 186.763 11.7656 186.352 11.9219C185.945 12.0781 185.464 12.1562 184.906 12.1562ZM194.805 9.75781C194.805 9.54948 194.758 9.35677 194.664 9.17969C194.576 8.9974 194.391 8.83333 194.109 8.6875C193.833 8.53646 193.417 8.40625 192.859 8.29688C192.391 8.19792 191.966 8.08073 191.586 7.94531C191.211 7.8099 190.891 7.64583 190.625 7.45312C190.365 7.26042 190.164 7.03385 190.023 6.77344C189.883 6.51302 189.812 6.20833 189.812 5.85938C189.812 5.52604 189.885 5.21094 190.031 4.91406C190.182 4.61719 190.393 4.35417 190.664 4.125C190.94 3.89583 191.271 3.71615 191.656 3.58594C192.042 3.45573 192.471 3.39062 192.945 3.39062C193.622 3.39062 194.201 3.51042 194.68 3.75C195.159 3.98958 195.526 4.3099 195.781 4.71094C196.036 5.10677 196.164 5.54688 196.164 6.03125H194.719C194.719 5.79688 194.648 5.57031 194.508 5.35156C194.372 5.1276 194.172 4.94271 193.906 4.79688C193.646 4.65104 193.326 4.57812 192.945 4.57812C192.544 4.57812 192.219 4.64062 191.969 4.76562C191.724 4.88542 191.544 5.03906 191.43 5.22656C191.32 5.41406 191.266 5.61198 191.266 5.82031C191.266 5.97656 191.292 6.11719 191.344 6.24219C191.401 6.36198 191.5 6.47396 191.641 6.57812C191.781 6.67708 191.979 6.77083 192.234 6.85938C192.49 6.94792 192.815 7.03646 193.211 7.125C193.904 7.28125 194.474 7.46875 194.922 7.6875C195.37 7.90625 195.703 8.17448 195.922 8.49219C196.141 8.8099 196.25 9.19531 196.25 9.64844C196.25 10.0182 196.172 10.3568 196.016 10.6641C195.865 10.9714 195.643 11.237 195.352 11.4609C195.065 11.6797 194.721 11.8516 194.32 11.9766C193.924 12.0964 193.479 12.1562 192.984 12.1562C192.24 12.1562 191.609 12.0234 191.094 11.7578C190.578 11.4922 190.188 11.1484 189.922 10.7266C189.656 10.3047 189.523 9.85938 189.523 9.39062H190.977C190.997 9.78646 191.112 10.1016 191.32 10.3359C191.529 10.5651 191.784 10.7292 192.086 10.8281C192.388 10.9219 192.688 10.9688 192.984 10.9688C193.38 10.9688 193.711 10.9167 193.977 10.8125C194.247 10.7083 194.453 10.5651 194.594 10.3828C194.734 10.2005 194.805 9.99219 194.805 9.75781Z" fill="#65665C"/>
</svg>
